<svg xmlns="http://www.w3.org/2000/svg" xmlns:xlink="http://www.w3.org/1999/xlink" width="100" height="100" viewBox="0 0 100 100"><circle stroke="none" fill="#333333" r="48%" cx="50%" cy="50%"></circle><g transform="translate(50 50) scale(0.69 0.69) rotate(0) translate(-50 -50)" style="fill:#b084d1"><svg fill="#b084d1" xmlns="http://www.w3.org/2000/svg" xmlns:xlink="http://www.w3.org/1999/xlink" version="1.1" x="0px" y="0px" viewBox="0 0 69 69" style="enable-background:new 0 0 69 69;" xml:space="preserve"><g><g><path d="M27.05649,51.71372c0.00905,0.00906,0.01805,0.00906,0.02711,0.01811h-9.06474v-6.42312L27.05649,51.71372z"></path></g><g><g><path d="M66.5,10.40659c0,0.1628,0,5.78822,0,5.55468h-9.69802v-5.55468c0-2.66878,2.17117-4.84001,4.84901-4.84001     S66.5,7.73781,66.5,10.40659z"></path></g></g><path d="M22.87692,5.55758c-2.68689,0-4.85806,2.17117-4.85806,4.85806v22.07387l7.4755,10.32307h3.13575   c0.19525,0,0.3525,0.15814,0.3525,0.35294s-0.15726,0.35294-0.3525,0.35294h-2.62455l3.86444,5.33652   c0.58806,0.76894,0.51567,1.90884-0.199,2.6235c-0.09956,0.09956-0.19906,0.18094-0.30761,0.25333h16.38353v4.18862   c0,2.07167,1.31178,3.90817,3.32018,4.59573c1.2665,0.28944,1.49267,0.25328,1.64645,0.25328   c2.60545-0.04522,4.73145-1.936,4.73145-4.53239V10.40659c0-0.13572,0-0.26239,0.01805-0.389   c0.10855-1.80934,1.00422-3.41062,2.34312-4.46001H22.87692z M24.8312,13.77309h15.80166c0.19525,0,0.3525,0.15814,0.3525,0.35294   c0,0.1948-0.15726,0.35294-0.3525,0.35294H24.8312c-0.19525,0-0.3525-0.15814-0.3525-0.35294   C24.4787,13.93123,24.63596,13.77309,24.8312,13.77309z M24.8312,18.61227h3.7989c0.19525,0,0.3525,0.15814,0.3525,0.35294   c0,0.19481-0.15726,0.35295-0.3525,0.35295h-3.7989c-0.19525,0-0.3525-0.15814-0.3525-0.35295   C24.4787,18.77041,24.63596,18.61227,24.8312,18.61227z M24.8312,23.45145h15.80166c0.19525,0,0.3525,0.15814,0.3525,0.35294   c0,0.19481-0.15726,0.35295-0.3525,0.35295H24.8312c-0.19525,0-0.3525-0.15814-0.3525-0.35295   C24.4787,23.60959,24.63596,23.45145,24.8312,23.45145z M24.8312,28.29505h15.80166c0.19525,0,0.3525,0.15814,0.3525,0.35294   c0,0.19481-0.15726,0.35295-0.3525,0.35295H24.8312c-0.19525,0-0.3525-0.15814-0.3525-0.35295   C24.4787,28.45319,24.63596,28.29505,24.8312,28.29505z M24.8312,33.13423h3.7989c0.19525,0,0.3525,0.15814,0.3525,0.35294   c0,0.1948-0.15726,0.35294-0.3525,0.35294h-3.7989c-0.19525,0-0.3525-0.15814-0.3525-0.35294   C24.4787,33.29237,24.63596,33.13423,24.8312,33.13423z M24.8312,38.6793c-0.19525,0-0.3525-0.15814-0.3525-0.35294   s0.15726-0.35294,0.3525-0.35294h15.80166c0.19525,0,0.3525,0.15814,0.3525,0.35294s-0.15726,0.35294-0.3525,0.35294H24.8312z    M48.63352,43.51848H32.83186c-0.19525,0-0.3525-0.15814-0.3525-0.35294s0.15726-0.35294,0.3525-0.35294h15.80165   c0.19525,0,0.3525,0.15814,0.3525,0.35294S48.82877,43.51848,48.63352,43.51848z M48.63352,38.6793h-3.7989   c-0.19524,0-0.3525-0.15814-0.3525-0.35294s0.15726-0.35294,0.3525-0.35294h3.7989c0.19525,0,0.3525,0.15814,0.3525,0.35294   S48.82877,38.6793,48.63352,38.6793z M48.63352,33.84012H32.83186c-0.19525,0-0.3525-0.15814-0.3525-0.35294   c0-0.19481,0.15726-0.35294,0.3525-0.35294h15.80165c0.19525,0,0.3525,0.15814,0.3525,0.35294   C48.98602,33.68198,48.82877,33.84012,48.63352,33.84012z M48.63352,29.00094h-3.7989c-0.19524,0-0.3525-0.15814-0.3525-0.35295   c0-0.1948,0.15726-0.35294,0.3525-0.35294h3.7989c0.19525,0,0.3525,0.15814,0.3525,0.35294   C48.98602,28.8428,48.82877,29.00094,48.63352,29.00094z M48.63352,24.15734h-3.7989c-0.19524,0-0.3525-0.15814-0.3525-0.35295   c0-0.1948,0.15726-0.35294,0.3525-0.35294h3.7989c0.19525,0,0.3525,0.15814,0.3525,0.35294   C48.98602,23.9992,48.82877,24.15734,48.63352,24.15734z M48.63352,19.31816H32.83186c-0.19525,0-0.3525-0.15814-0.3525-0.35295   c0-0.1948,0.15726-0.35294,0.3525-0.35294h15.80165c0.19525,0,0.3525,0.15814,0.3525,0.35294   C48.98602,19.16002,48.82877,19.31816,48.63352,19.31816z M48.63352,14.47898h-3.7989c-0.19524,0-0.3525-0.15814-0.3525-0.35294   c0-0.1948,0.15726-0.35294,0.3525-0.35294h3.7989c0.19525,0,0.3525,0.15814,0.3525,0.35294   C48.98602,14.32084,48.82877,14.47898,48.63352,14.47898z"></path><g><path d="M16.08286,60.76946c0.968-1.31178,1.40222-2.78639,1.11272-4.20673v-3.47389H44.4623v2.83162    c0,1.91789,0.89561,3.69106,2.35212,4.84901H16.08286z"></path></g><g><g><path d="M28.71204,50.51955c-0.23522,0.23522-0.60617,0.27144-0.87756,0.08144l-11.99591-8.5039v14.61041     c0.56995,2.33406-1.67361,5.04807-5.18373,6.22412c-3.05295,1.0177-7.07505,0.61558-7.97918-2.126     c-0.95969-2.85759,2.19155-5.50799,5.1114-6.48645c1.03128-0.35284,2.08073-0.52472,3.08489-0.53373V34.38936     c0-1.68272,1.37511-3.05779,3.06684-3.05779c0.98606,0,1.90884,0.47039,2.48784,1.2665l12.34869,17.05303     C28.97438,49.91344,28.94721,50.28439,28.71204,50.51955z"></path></g></g></g></svg></g></svg>